<svg xmlns="http://www.w3.org/2000/svg" width="368" height="268" viewBox="0 0 1719.468 1403.668">
  <g id="VMEET_logo_SVG_final" data-name="VMEET  logo SVG final" transform="translate(-65.813 -71.368)">
    <g id="g12" transform="translate(65.813 71.368)">
      <path id="path14" d="M263.861,666.021A92.911,92.911,0,0,1,221.4,655.388C177.859,632,161.937,577.217,185.3,533.614L410.342,118.276a89.193,89.193,0,0,1,77.33-46.906h3.257A89.944,89.944,0,0,1,531.9,82.11c43.518,23.411,59.443,78.169,36.077,121.793L342.939,619.219a90.346,90.346,0,0,1-79.076,46.8Zm744.124,290.887C-117.051,941.116,1293.866,960.035,1007.984,956.908Z" transform="translate(589.791 -71.352)" fill="#a5f0c5" fill-rule="evenodd"/>
      <g id="g16" transform="translate(22.454)">
        <path id="path18" d="M630.039,675.1h-1.056l-471.842-6.918c-49.365-.541-89.171-41.485-88.113-90.945.538-48.92,40.864-88.265,89.69-88.265H159.8l471.842,6.918a89.22,89.22,0,0,1,88.114,90.923c-.538,48.92-40.885,88.287-89.711,88.287Zm539.783-179.21,165.615-2.66L1498.9,233.714c26.02-42.023,13.808-97.32-28.115-123.911a89.93,89.93,0,0,0-123.672,28.191L1105.073,523a56.941,56.941,0,0,1-3.172,5.858,89.25,89.25,0,0,1,67.922-32.966Z" transform="translate(-69.007 78.047)" fill="#035956" fill-rule="evenodd"/>
        <path id="path20" d="M982.979,674.846c-48.825,0-88.633-39.367-89.689-88.287-.54-49.46,38.749-90.4,88.094-90.923l471.321-6.918c50.423-.54,90.232,38.824,90.769,88.265.518,49.46-38.75,90.4-88.115,90.945l-471.322,6.918ZM277.066,492.976l166.135,2.66a88.683,88.683,0,0,1,66.883,31.906c-.538-1.6-1.6-2.658-2.134-4.258L265.934,138.255c-26.538-42-81.751-54.757-123.672-28.169-41.942,26.591-54.672,81.889-28.134,123.891l162.939,259Z" transform="translate(119.426 78.304)" fill="#184d47" fill-rule="evenodd"/>
        <path id="path22" d="M377.868,533.629l79.076-145.723L310.983,118.293A89.694,89.694,0,1,0,153.35,203.92l216.556,399.9a21.6,21.6,0,0,0,3.712,5.838,89.158,89.158,0,0,1,4.25-76.031Z" transform="translate(374.772 -71.368)" fill="#00917c" fill-rule="evenodd"/>
      </g>
      <path id="path24" d="M257.471,201.391h54.516L225.43,456.01H166.574L80.2,201.391H134.71l47.917,151.536q4.014,13.375,8.263,31.209c2.853,11.949,4.579,20.214,5.292,24.851q1.961-16.053,13.079-56.06ZM367.385,382.175V338.6H460.9v43.577ZM656.177,456.01,594.826,256.264H593.28q3.3,60.9,3.33,81.325V456.01H548.338V201.391h73.478L682.1,396.085h1.07l63.909-194.694h73.478V456.01H770.2v-120.5c0-5.706.119-12.246.3-19.678s.95-27.168,2.32-59.269H771.27L705.638,456.01Zm419.877,0H929.395V201.391h146.66v44.231H983.372V301.5h86.2v44.231h-86.2v65.689h92.682Zm244.5,0H1173.9V201.391h146.66v44.231h-92.682V301.5h86.2v44.231h-86.2v65.689h92.682Zm196.05,0h-53.979V246.335H1393.49V201.391h192.316v44.944h-69.2Z" transform="translate(20.905 712.565)" fill="#035956" fill-rule="evenodd"/>
      <path id="path26" d="M140.275,351.544H117.991L93.738,312.53l-8.3,5.966v33.048H65.813V258.969H85.439v42.363l7.737-10.893,25.074-31.471h21.786l-32.291,40.958,32.53,51.617Zm87.761,0H174.712V258.969h53.324v16.082h-33.7v20.316h31.34v16.082h-31.34v23.884h33.7Zm61.715-51.487h6.332q9.307,0,13.746-3.09c2.963-2.074,4.432-5.316,4.432-9.769q0-6.581-4.518-9.359-4.539-2.788-14.027-2.787h-5.966v25.006Zm0,15.953v35.535H270.124V258.969H297.1q18.871,0,27.925,6.872t9.059,20.858a24.478,24.478,0,0,1-4.5,14.526,29.8,29.8,0,0,1-12.731,9.986q20.913,31.22,27.234,40.333H322.3l-22.091-35.535h-10.46ZM435.2,351.544,428.5,329.5H394.737l-6.7,22.048H366.875l32.681-92.965h23.992l32.811,92.965Zm-11.391-38.5q-9.3-29.956-10.483-33.891c-.779-2.616-1.34-4.671-1.686-6.2q-2.074,8.105-11.953,40.1Zm66.988,38.5V258.969h19.627v76.364h37.565v16.211Zm152.733,0-6.7-22.048H603.067l-6.7,22.048H575.206l32.681-92.965h23.992l32.811,92.965Zm-11.391-38.5q-9.3-29.956-10.483-33.891c-.78-2.616-1.341-4.671-1.686-6.2q-2.075,8.105-11.953,40.1Zm153.49-54.079H805.45l-31.472,92.575h-21.4l-31.406-92.575h19.819l17.423,55.1q1.459,4.863,3,11.347c1.036,4.344,1.664,7.348,1.923,9.035q.715-5.835,4.757-20.382l17.528-55.1Zm92.3,15q-11.055,0-17.161,8.323-6.065,8.33-6.073,23.213,0,30.964,23.234,30.974,9.758,0,23.626-4.886v16.471a65.745,65.745,0,0,1-25.463,4.756q-20.2,0-30.886-12.256t-10.7-35.188q0-14.427,5.252-25.289a38,38,0,0,1,15.109-16.666q9.822-5.771,23.061-5.793a62.375,62.375,0,0,1,27.1,6.528L898.7,280.108a107.366,107.366,0,0,0-10.441-4.3,30.956,30.956,0,0,0-10.332-1.838Zm154.441,51.875q0,12.514-9.012,19.756-9.015,7.2-25.116,7.219-14.818,0-26.22-5.577V329a106.027,106.027,0,0,0,15.864,5.879,46.857,46.857,0,0,0,11.89,1.729c4.3,0,7.607-.821,9.9-2.485a8.412,8.412,0,0,0,3.459-7.35,8.183,8.183,0,0,0-1.534-4.842,16.922,16.922,0,0,0-4.453-4.085,119.292,119.292,0,0,0-12-6.269,56.975,56.975,0,0,1-12.73-7.651,28.833,28.833,0,0,1-6.787-8.56,24.384,24.384,0,0,1-2.528-11.389q0-12.29,8.32-19.324,8.333-7,23.02-7.026a55.284,55.284,0,0,1,13.791,1.708,95.131,95.131,0,0,1,13.7,4.82l-6.333,15.26a92.074,92.074,0,0,0-12.256-4.236,39.383,39.383,0,0,0-9.532-1.212q-5.576,0-8.538,2.594a8.575,8.575,0,0,0-2.983,6.787,8.167,8.167,0,0,0,1.212,4.517,13.166,13.166,0,0,0,3.825,3.74,116.3,116.3,0,0,0,12.428,6.484q13,6.225,17.811,12.451t4.8,15.3Zm123.618-20.706q0,22.987-11.411,35.318-11.381,12.352-32.66,12.364-21.3,0-32.681-12.364-11.414-12.353-11.391-35.448,0-23.117,11.413-35.319Q1090.7,257.5,1112.046,257.5t32.637,12.3Q1155.966,282.087,1155.987,305.138Zm-67.567,0q0,15.5,5.88,23.365,5.9,7.846,17.616,7.847,23.472,0,23.495-31.211,0-31.286-23.364-31.3-11.737,0-17.682,7.888t-5.944,23.411Zm109.525,46.406V258.969h19.626v76.364h37.565v16.211Zm170.134-92.575v59.893a34.393,34.393,0,0,1-4.583,17.982,29.82,29.82,0,0,1-13.272,11.846c-5.77,2.746-12.623,4.129-20.511,4.129q-17.868,0-27.732-9.164-9.89-9.146-9.879-25.03V258.969h19.563v56.673q0,10.7,4.3,15.691,4.313,5.027,14.245,5.015c6.42,0,11.089-1.686,13.963-5.037q4.343-5.024,4.343-15.8V258.969h19.563Zm81.167,92.575H1429.62V275.31h-25.138V258.969H1474.4V275.31h-25.157v76.234Zm62.189,0V258.969h19.626v92.575Zm149.75-46.406q0,22.987-11.411,35.318-11.381,12.352-32.66,12.364-21.3,0-32.682-12.364-11.414-12.353-11.391-35.448,0-23.117,11.413-35.319Q1595.9,257.5,1617.244,257.5t32.638,12.3q11.283,12.29,11.3,35.341Zm-67.567,0q0,15.5,5.88,23.365,5.9,7.846,17.616,7.847,23.472,0,23.494-31.211,0-31.286-23.364-31.3-11.736,0-17.681,7.888t-5.944,23.411Zm191.661,46.406h-24.945l-40.289-70.032h-.562q1.2,18.546,1.209,26.457v43.575h-17.55V258.969h24.771l40.2,69.34h.432c-.628-12.041-.953-20.535-.953-25.529V258.969h17.682v92.575Z" transform="translate(-65.813 1050.849)" fill="#1b1918" fill-rule="evenodd"/>
    </g>
  </g>
</svg>
